<svg width="40" height="40" viewBox="0 0 40 40" fill="none" xmlns="http://www.w3.org/2000/svg">
<path d="M20 0.799805C9.39605 0.799805 0.800049 9.39581 0.800049 19.9998C0.800049 30.6038 9.39605 39.1998 20 39.1998C30.604 39.1998 39.2001 30.6038 39.2001 19.9998C39.2001 9.39581 30.604 0.799805 20 0.799805ZM18.894 28.2418C17.688 28.8278 16.39 28.8898 15.888 28.8898H15.738H15.63C14.846 28.8898 10.944 28.7098 10.944 25.1558C10.944 21.6638 15.194 21.3898 16.496 21.3898H16.53C15.778 20.3858 15.934 19.3738 15.934 19.3738C15.8408 19.3793 15.7474 19.3819 15.654 19.3818C15.164 19.3818 14.218 19.3038 13.406 18.7798C12.41 18.1398 11.906 17.0498 11.906 15.5418C11.906 11.2798 16.56 11.1078 16.606 11.1038H21.254V11.2058C21.254 11.7258 20.32 11.8278 19.684 11.9138C19.468 11.9458 19.0341 11.9878 18.9121 12.0498C20.0901 12.6798 20.2801 13.6678 20.2801 15.1398C20.2801 16.8158 19.624 17.7018 18.928 18.3238C18.496 18.7098 18.1581 19.0118 18.1581 19.4178C18.1581 19.8158 18.6221 20.2218 19.1621 20.6958C20.0441 21.4738 21.254 22.5318 21.254 24.3178C21.254 26.1638 20.46 27.4838 18.894 28.2418V28.2418ZM29 19.9998H26V22.9998H24V19.9998H21V17.9998H24V14.9998H26V17.9998H29V19.9998ZM16.446 22.2998C16.3413 22.2998 16.2365 22.3039 16.132 22.3118C15.2826 22.3607 14.4735 22.6907 13.832 23.2498C13.244 23.7818 12.944 24.4538 12.986 25.1318C13.076 26.5538 14.602 27.3858 16.456 27.2538C18.28 27.1218 19.4961 26.0698 19.4081 24.6478C19.3241 23.3118 18.162 22.2998 16.446 22.2998V22.2998ZM18.194 14.5698C17.71 12.8698 16.93 12.3658 15.718 12.3658C15.5869 12.3668 15.4565 12.3849 15.33 12.4198C14.804 12.5698 14.386 13.0078 14.154 13.6598C13.916 14.3198 13.902 15.0078 14.106 15.7918C14.476 17.1938 15.472 18.2098 16.476 18.2098C16.6073 18.2111 16.7381 18.1929 16.864 18.1558C17.962 17.8478 18.65 16.1718 18.194 14.5698V14.5698Z" fill="black"/>
</svg>
