<svg width="40" height="40" viewBox="0 0 40 40" fill="none" xmlns="http://www.w3.org/2000/svg">
<path d="M20 0.799805C9.39605 0.799805 0.800049 9.39581 0.800049 19.9998C0.800049 30.6038 9.39605 39.1998 20 39.1998C30.604 39.1998 39.2001 30.6038 39.2001 19.9998C39.2001 9.39581 30.604 0.799805 20 0.799805ZM28.802 16.2998C27.786 22.1318 22.106 27.0738 20.4 28.2018C18.692 29.3258 17.132 27.7478 16.568 26.5538C15.92 25.1898 13.982 17.8078 13.474 17.1938C12.966 16.5818 11.442 17.8078 11.442 17.8078L10.704 16.8198C10.704 16.8198 13.798 13.0538 16.152 12.5858C18.648 12.0858 18.644 16.4878 19.244 18.9338C19.826 21.2998 20.216 22.6518 20.722 22.6518C21.23 22.6518 22.2 21.3358 23.26 19.3118C24.324 17.2878 23.2161 15.4998 21.1381 16.7718C21.9681 11.6918 29.818 10.4678 28.802 16.2998Z" fill="black"/>
</svg>
